<?xml version="1.0" encoding="UTF-8"?>
<svg width="38px" height="40px" viewBox="0 0 38 40" version="1.1" xmlns="http://www.w3.org/2000/svg" xmlns:xlink="http://www.w3.org/1999/xlink">
    <!-- Generator: Sketch 60 (88103) - https://sketch.com -->
    <title>Combined shape 834备份</title>
    <desc>Created with Sketch.</desc>
    <defs>
        <linearGradient x1="100%" y1="50%" x2="0%" y2="50%" id="linearGradient-1">
            <stop stop-color="#1175B6" offset="0%"></stop>
            <stop stop-color="#25A591" offset="78.5868877%"></stop>
            <stop stop-color="#2AB287" offset="100%"></stop>
        </linearGradient>
    </defs>
    <g id="Page-1" stroke="none" stroke-width="1" fill="none" fill-rule="evenodd">
        <g id="Artboard" transform="translate(-375.000000, -2037.000000)" fill="url(#linearGradient-1)">
            <g id="More-Feature" transform="translate(373.000000, 1914.000000)">
                <g id="01" transform="translate(0.000000, 118.000000)">
                    <g id="Combined-shape-834备份">
                        <path d="M16.28725,4.998941 C16.614348,4.998941 16.879618,5.261585 16.879618,5.58516 C16.879618,5.908778 16.614348,6.171035 16.28725,6.171035 L16.28725,6.171035 L12.118739,6.171035 L12.118739,13.29893 C12.118739,14.241619 11.343306,15.008825 10.390138,15.008825 L10.390138,15.008825 L3.184798,15.008825 L3.184798,43.266834 C3.184798,43.575961 3.438752,43.827296 3.751049,43.827296 L3.751049,43.827296 L27.30928,43.827296 C27.639002,43.827296 27.907265,43.5619 27.907265,43.23596 L27.907265,43.23596 L27.907265,40.385662 L17.345501,40.385662 C16.67511,40.385662 16.33932,39.581304 16.81287,39.113507 L16.81287,39.113507 L27.907347,28.139047 L27.907347,23.797337 L16.102422,35.474503 C16.051172,35.525329 15.982497,35.570264 15.921161,35.596838 L15.921161,35.596838 L10.710881,37.853091 C9.700272,38.28924 8.793106,37.377468 9.230617,36.38864 C9.443694,35.906782 11.291933,31.730364 11.511078,31.234789 C11.539696,31.169558 11.58578,31.10351 11.634775,31.055436 L11.634775,31.055436 L27.907265,14.957999 L27.907265,6.70918 C27.907265,6.412566 27.663151,6.171035 27.363318,6.171035 L27.363318,6.171035 L19.051716,6.171035 C18.724618,6.171035 18.459348,5.908391 18.459348,5.58516 C18.459348,5.261585 18.724618,4.998941 19.051716,4.998941 L19.051716,4.998941 L27.363318,4.998941 C28.316609,4.998941 29.092042,5.766534 29.09196,6.70918 L29.09196,6.70918 L29.09196,13.786292 C29.65981,13.224282 33.57654,9.350025 34.13742,8.795454 C35.048809,7.894561 36.53141,7.894561 37.442594,8.795454 L37.442594,8.795454 L38.605313,9.945661 C39.516497,10.846898 39.516497,12.313284 38.605313,13.214908 C37.15133,14.652785 30.389692,21.341779 29.092042,22.625286 L29.092042,22.625286 L29.092042,26.966953 L38.713922,17.448774 C38.93032,17.235365 39.252457,17.172069 39.535029,17.287352 C39.817478,17.403409 40.00001,17.673879 39.999764,17.97561 L39.999764,17.97561 L39.999764,39.197529 C39.999764,39.852548 39.46086,40.385662 38.798464,40.385662 L38.798464,40.385662 L29.09196,40.385662 L29.09196,43.23596 C29.09196,44.208319 28.292214,44.999347 27.309198,44.999347 L27.309198,44.999347 L3.751049,44.999347 C2.78554,44.999347 1.999898,44.222423 1.999898,43.266834 L1.999898,43.266834 L1.999898,14.42295 C1.999898,14.27288 2.059266,14.121262 2.173369,14.008301 L2.173369,14.008301 L11.107556,5.171285 C11.221413,5.058754 11.377992,4.998941 11.526412,4.998941 L11.526412,4.998941 Z M38.815192,19.005417 C38.219626,19.594388 18.918261,38.687893 18.387024,39.213181 L18.387024,39.213181 L38.798587,39.213181 C38.80773,39.213181 38.815192,39.206129 38.815192,39.196755 L38.815192,39.196755 L38.815192,36.984663 L38.218273,36.984663 C37.891093,36.984663 37.625905,36.722406 37.625905,36.398831 C37.625905,36.075213 37.891093,35.812569 38.218273,35.812569 L38.218273,35.812569 L38.815192,35.812569 L38.815192,32.93531 L38.218273,32.93531 C37.891093,32.93531 37.625905,32.673053 37.625905,32.349435 C37.625905,32.02586 37.891093,31.763603 38.218273,31.763603 L38.218273,31.763603 L38.815192,31.763603 L38.815192,28.886731 L38.218273,28.886731 C37.891093,28.886731 37.625905,28.624861 37.625905,28.300856 C37.625905,27.977281 37.891093,27.714637 38.218273,27.714637 L38.218273,27.714637 L38.815192,27.714637 L38.815192,24.838152 L38.218273,24.838152 C37.891093,24.838152 37.625905,24.576282 37.625905,24.25189 C37.625905,23.928659 37.891093,23.666445 38.218273,23.666445 L38.218273,23.666445 L38.815192,23.666445 Z M35.270168,26.030542 C35.687179,25.617828 36.404146,25.910572 36.404146,26.495243 L36.404146,26.495243 L36.404146,35.973604 C36.404146,36.444927 36.016409,36.828745 35.539784,36.828745 L35.539784,36.828745 L25.958207,36.828745 C25.36711,36.828745 25.071172,36.119761 25.488429,35.707047 L25.488429,35.707047 Z M11.212475,34.831997 L10.37833,36.716945 L12.28401,35.892291 L11.212475,34.831997 Z M35.219328,27.738459 L27.214652,35.656651 L35.219328,35.656651 L35.219328,27.738459 Z M12.248422,32.491335 L11.722556,33.679812 L13.449476,35.387729 L14.651104,34.867945 C14.302727,34.523214 12.596881,32.836023 12.248422,32.491335 L12.248422,32.491335 Z M30.986406,13.570174 C30.115853,14.431163 13.498471,30.869375 12.891466,31.469311 C13.57674,32.147378 13.469033,32.040695 13.86866,32.436209 L13.86866,32.436209 L22.364188,24.032633 C22.595592,23.803615 22.970619,23.803615 23.2019,24.032633 C23.433304,24.261264 23.433304,24.632182 23.2019,24.8612 L23.2019,24.8612 L14.706249,33.264776 L15.683566,34.231674 C30.7672134,19.3105472 32.8469351,17.2537495 33.7024188,16.4071824 L33.778629,16.331763 L32.801435,15.364865 L25.161372,22.923061 C24.929968,23.151692 24.555064,23.151692 24.32366,22.923061 C24.092256,22.693656 24.092256,22.322781 24.32366,22.09372 L24.32366,22.09372 L31.9636,14.536685 Z M33.209426,11.371369 L31.8242,12.741607 C32.160564,13.074212 34.225324,15.116282 34.616464,15.503583 L34.616464,15.503583 L36.001526,14.132958 L33.209426,11.371369 Z M10.934044,6.999989 L4.02251,13.837118 L10.39022,13.837118 C10.690053,13.837118 10.934044,13.5952 10.934044,13.29893 L10.934044,13.29893 L10.934044,6.999989 Z M36.604759,9.623978 C36.155686,9.180003 35.424656,9.180003 34.975337,9.623978 L34.975337,9.623978 L34.04722,10.542028 L36.839361,13.304434 L37.767478,12.386384 C38.216674,11.941592 38.216674,11.21859 37.767478,10.774572 L37.767478,10.774572 Z"></path>
                    </g>
                </g>
            </g>
        </g>
    </g>
</svg>