<?xml version="1.0" encoding="UTF-8"?>
<svg width="38px" height="38px" viewBox="0 0 38 38" version="1.1" xmlns="http://www.w3.org/2000/svg" xmlns:xlink="http://www.w3.org/1999/xlink">
    <!-- Generator: Sketch 60 (88103) - https://sketch.com -->
    <title>Combined shape 877备份</title>
    <desc>Created with Sketch.</desc>
    <defs>
        <linearGradient x1="100%" y1="50%" x2="0%" y2="50%" id="linearGradient-1">
            <stop stop-color="#1175B6" offset="0%"></stop>
            <stop stop-color="#2AB287" offset="100%"></stop>
        </linearGradient>
    </defs>
    <g id="Page-1" stroke="none" stroke-width="1" fill="none" fill-rule="evenodd">
        <g id="Artboard" transform="translate(-375.000000, -2199.000000)" fill="url(#linearGradient-1)">
            <g id="More-Feature" transform="translate(373.000000, 1914.000000)">
                <g id="02" transform="translate(1.000000, 280.000000)">
                    <g id="01">
                        <path d="M37.85948,36.97219 C38.48832,36.97219 39,37.483378 39,38.112605 L39,38.112605 L39,41.858283 C39,42.487551 38.48844,42.999518 37.85948,42.999518 L37.85948,42.999518 L34.11336,42.999518 C33.48452,42.999518 32.97296,42.487551 32.97296,41.858283 L32.97296,41.858283 L32.97296,38.112605 C32.97296,37.483378 33.4844,36.97219 34.11336,36.97219 L34.11336,36.97219 Z M5.88652,36.97219 C6.51536,36.97219 7.02692,37.483378 7.02692,38.112605 L7.02692,38.112605 L7.02692,41.858283 C7.02692,42.487551 6.51548,42.999518 5.88652,42.999518 L5.88652,42.999518 L2.1404,42.999518 C1.51156,42.999518 1,42.487551 1,41.858283 L1,41.858283 L1,38.112605 C1,37.483378 1.51156,36.97219 2.1404,36.97219 L2.1404,36.97219 Z M37.85948,38.085258 L34.11336,38.085258 C34.09976,38.085258 34.08624,38.099321 34.08624,38.112605 L34.08624,38.112605 L34.08624,41.858283 C34.08624,41.872387 34.09964,41.885671 34.11336,41.885671 L34.11336,41.885671 L37.85948,41.885671 C37.8732,41.885671 37.8866,41.872387 37.8866,41.858283 L37.8866,41.858283 L37.8866,38.112605 C37.8866,38.099321 37.8732,38.085258 37.85948,38.085258 L37.85948,38.085258 Z M5.88652,38.085258 L2.1404,38.085258 C2.1268,38.085258 2.11328,38.099321 2.11328,38.112605 L2.11328,38.112605 L2.11328,41.858283 C2.11328,41.872387 2.12668,41.885671 2.1404,41.885671 L2.1404,41.885671 L5.88652,41.885671 C5.90012,41.885671 5.91364,41.872387 5.91364,41.858283 L5.91364,41.858283 L5.91364,38.112605 C5.91364,38.099321 5.90024,38.085258 5.88652,38.085258 L5.88652,38.085258 Z M13.6194,39.42891 C13.92692,39.42891 14.17616,39.678272 14.17604,39.985854 C14.17604,40.292657 13.92692,40.541978 13.6194,40.541978 L13.6194,40.541978 L13.09356,40.541978 C12.78604,40.541978 12.53692,40.292657 12.53692,39.985854 C12.53692,39.678272 12.78604,39.42891 13.09356,39.42891 L13.09356,39.42891 Z M26.2428,39.42891 C26.55032,39.42891 26.79944,39.678272 26.79944,39.985854 C26.79944,40.292657 26.55032,40.541978 26.2428,40.541978 L26.2428,40.541978 L25.71696,40.541978 C25.40944,40.541978 25.16032,40.292657 25.16032,39.985854 C25.16032,39.678272 25.40944,39.42891 25.71696,39.42891 L25.71696,39.42891 Z M29.39864,39.42891 C29.70612,39.42891 29.9554,39.678272 29.95528,39.985854 C29.95528,40.292657 29.70612,40.541978 29.39864,40.541978 L29.39864,40.541978 L28.87276,40.541978 C28.56528,40.541978 28.31612,40.292657 28.31612,39.985854 C28.31612,39.678272 28.56528,39.42891 28.87276,39.42891 L28.87276,39.42891 Z M23.087,39.42891 C23.39448,39.42891 23.64364,39.678272 23.64364,39.985854 C23.64364,40.292657 23.39448,40.541978 23.087,40.541978 L23.087,40.541978 L22.561,40.541978 C22.25352,40.541978 22.00436,40.292657 22.00436,39.985854 C22.00436,39.678272 22.25352,39.42891 22.561,39.42891 L22.561,39.42891 Z M16.77532,39.42891 C17.08272,39.42891 17.33196,39.678272 17.33196,39.985854 C17.33196,40.292657 17.08272,40.541978 16.77532,40.541978 L16.77532,40.541978 L16.24936,40.541978 C15.94188,40.541978 15.69272,40.292657 15.69272,39.985854 C15.69272,39.678272 15.94188,39.42891 16.24936,39.42891 L16.24936,39.42891 Z M19.93116,39.42891 C20.23868,39.42891 20.4878,39.678272 20.4878,39.985854 C20.4878,40.292657 20.23868,40.541978 19.93116,40.541978 L19.93116,40.541978 L19.4052,40.541978 C19.09768,40.541978 18.84856,40.292657 18.84856,39.985854 C18.84856,39.678272 19.09768,39.42891 19.4052,39.42891 L19.4052,39.42891 Z M10.46368,39.42891 C10.7712,39.42891 11.02032,39.678272 11.02032,39.985854 C11.02032,40.292657 10.7712,40.541978 10.46368,40.541978 L10.46368,40.541978 L9.9376,40.541978 C9.6302,40.541978 9.38096,40.292657 9.38096,39.985854 C9.38096,39.678272 9.6302,39.42891 9.9376,39.42891 L9.9376,39.42891 Z M18.635,12.690842 C18.94252,12.690842 19.19164,12.940163 19.19164,13.247745 C19.19164,13.554548 18.94252,13.803541 18.635,13.803541 L18.635,13.803541 L10.16912,13.803541 L10.16912,17.975619 L12.33604,17.975619 L12.33604,16.701134 C12.33604,16.298555 12.66372,15.971457 13.06644,15.971457 L13.06644,15.971457 L18.18616,15.971457 C18.589,15.971457 18.91652,16.298555 18.91652,16.701134 L18.91652,16.701134 L18.91652,31.297339 C18.91652,31.347769 18.91148,31.39701 18.90176,31.444324 C18.83356,31.776506 18.53852,32.027426 18.18616,32.027426 L18.18616,32.027426 L16.13732,32.027426 L16.13732,34.194563 L23.86256,34.194563 L23.86256,32.027426 L21.81372,32.027426 C21.46124,32.027426 21.16632,31.776506 21.09812,31.444324 C21.0884,31.39701 21.08324,31.347769 21.08324,31.297339 L21.08324,31.297339 L21.08324,16.701134 C21.08324,16.298555 21.411,15.971457 21.81372,15.971457 L21.81372,15.971457 L26.93344,15.971457 C27.33628,15.971457 27.6638,16.298555 27.6638,16.701134 L27.6638,16.701134 L27.6638,17.975619 L29.83076,17.975619 L29.83064,13.803541 L21.2328,13.803541 C20.92544,13.803541 20.67616,13.554179 20.67616,13.247376 C20.67616,12.939794 20.92544,12.690842 21.2328,12.690842 L21.2328,12.690842 L30.21368,12.690842 C30.6164,12.690842 30.94404,13.01794 30.94392,13.420519 C30.94392,14.0078223 30.9439658,16.8965741 30.9440008,19.226777 L30.94404,22.233674 C30.94404,22.541666 30.69492,22.790618 30.3874,22.790618 C30.07988,22.790618 29.83076,22.541666 29.83076,22.233674 L29.83076,22.233674 L29.83076,19.088687 L27.28088,19.088687 C26.87808,19.088687 26.55044,18.761179 26.55044,18.358231 L26.55044,18.358231 L26.55044,17.084115 L22.19664,17.084115 L22.19664,30.914727 L24.24536,30.914727 C24.59784,30.914727 24.89288,31.165278 24.96108,31.49787 C24.9708,31.545143 24.97584,31.594794 24.97584,31.644404 L24.97584,31.644404 L24.97584,34.194563 L29.80924,34.194563 C29.82116,34.194563 29.83076,34.184805 29.83076,34.172669 L29.83076,34.172669 L29.83076,24.831516 C29.83076,24.524303 30.07988,24.274982 30.3874,24.274982 C30.69492,24.274982 30.94404,24.524303 30.94404,24.831516 L30.94404,24.831516 L30.94404,34.172669 C30.94404,34.79878 30.435,35.308041 29.80912,35.308041 L29.80912,35.308041 L10.19052,35.308041 C9.56476,35.308041 9.05572,34.79878 9.05572,34.172669 L9.05572,34.172669 L9.05572,13.420519 C9.05572,13.01794 9.38336,12.690842 9.78608,12.690842 L9.78608,12.690842 Z M17.803,17.084115 L13.44936,17.084115 L13.44936,18.358231 C13.44936,18.761179 13.12168,19.089056 12.71896,19.089056 L12.71896,19.089056 L10.16912,19.089056 L10.16912,34.172669 C10.16912,34.184805 10.17872,34.194563 10.1904,34.194563 L10.1904,34.194563 L15.0238,34.194563 L15.0238,31.644404 C15.0238,31.594794 15.02896,31.545143 15.03868,31.49787 C15.107,31.165278 15.4018,30.914727 15.75428,30.914727 L15.75428,30.914727 L17.803,30.914727 L17.803,17.084115 Z M4.01344,32.315451 C4.32096,32.315451 4.5702,32.564813 4.57008,32.871985 L4.57008,32.871985 L4.57008,33.397646 C4.57008,33.705228 4.32096,33.95459 4.01344,33.95459 C3.70596,33.95459 3.4568,33.705228 3.4568,33.397646 L3.4568,33.397646 L3.4568,32.871985 C3.4568,32.564813 3.70596,32.315451 4.01344,32.315451 Z M35.9864,32.315451 C36.29392,32.315451 36.54308,32.564813 36.54308,32.871985 L36.54308,32.871985 L36.54308,33.397646 C36.54308,33.705228 36.29392,33.95459 35.9864,33.95459 C35.67892,33.95459 35.42976,33.705228 35.42976,33.397646 L35.42976,33.397646 L35.42976,32.871985 C35.42976,32.564813 35.67892,32.315451 35.9864,32.315451 Z M35.9864,29.159517 C36.29392,29.159517 36.54308,29.408879 36.54308,29.716051 L36.54308,29.716051 L36.54308,30.242122 C36.54308,30.549294 36.29392,30.798287 35.9864,30.798287 C35.67892,30.798287 35.42976,30.549294 35.42976,30.242122 L35.42976,30.242122 L35.42976,29.716051 C35.42976,29.408879 35.67892,29.159517 35.9864,29.159517 Z M4.01344,29.159517 C4.32096,29.159517 4.5702,29.408879 4.57008,29.716051 L4.57008,29.716051 L4.57008,30.242122 C4.57008,30.549294 4.32096,30.798287 4.01344,30.798287 C3.70596,30.798287 3.4568,30.549294 3.4568,30.242122 L3.4568,30.242122 L3.4568,29.716051 C3.4568,29.408879 3.70596,29.159517 4.01344,29.159517 Z M4.01344,26.003583 C4.32096,26.003583 4.5702,26.252945 4.57008,26.560117 L4.57008,26.560117 L4.57008,27.086188 C4.57008,27.393401 4.32096,27.642722 4.01344,27.642722 C3.70596,27.642722 3.4568,27.393401 3.4568,27.086188 L3.4568,27.086188 L3.4568,26.560117 C3.4568,26.252945 3.70596,26.003583 4.01344,26.003583 Z M35.9864,26.003583 C36.29392,26.003583 36.54308,26.252945 36.54308,26.560117 L36.54308,26.560117 L36.54308,27.086188 C36.54308,27.393401 36.29392,27.642722 35.9864,27.642722 C35.67892,27.642722 35.42976,27.393401 35.42976,27.086188 L35.42976,27.086188 L35.42976,26.560117 C35.42976,26.252945 35.67892,26.003583 35.9864,26.003583 Z M35.9864,22.847649 C36.29392,22.847649 36.54308,23.097011 36.54308,23.404593 L36.54308,23.404593 L36.54308,23.930254 C36.54308,24.237836 36.29392,24.486788 35.9864,24.486788 C35.67892,24.486788 35.42976,24.237836 35.42976,23.930254 L35.42976,23.930254 L35.42976,23.404593 C35.42976,23.097011 35.67892,22.847649 35.9864,22.847649 Z M4.01344,22.847649 C4.32096,22.847649 4.5702,23.097011 4.57008,23.404593 L4.57008,23.404593 L4.57008,23.930254 C4.57008,24.237836 4.32096,24.486788 4.01344,24.486788 C3.70596,24.486788 3.4568,24.237836 3.4568,23.930254 L3.4568,23.930254 L3.4568,23.404593 C3.4568,23.097011 3.70596,22.847649 4.01344,22.847649 Z M35.9864,19.692125 C36.29392,19.692125 36.54308,19.941487 36.54308,20.248659 L36.54308,20.248659 L36.54308,20.77432 C36.54308,21.081902 36.29392,21.331264 35.9864,21.331264 C35.67892,21.331264 35.42976,21.081902 35.42976,20.77432 L35.42976,20.77432 L35.42976,20.248659 C35.42976,19.941487 35.67892,19.692125 35.9864,19.692125 Z M4.01344,19.692125 C4.32096,19.692125 4.5702,19.941487 4.57008,20.248659 L4.57008,20.248659 L4.57008,20.77432 C4.57008,21.081902 4.32096,21.331264 4.01344,21.331264 C3.70596,21.331264 3.4568,21.081902 3.4568,20.77432 L3.4568,20.77432 L3.4568,20.248659 C3.4568,19.941487 3.70596,19.692125 4.01344,19.692125 Z M35.9864,16.536191 C36.29392,16.536191 36.54308,16.785553 36.54308,17.093135 L36.54308,17.093135 L36.54308,17.618796 C36.54308,17.926378 36.29392,18.17533 35.9864,18.17533 C35.67892,18.17533 35.42976,17.926378 35.42976,17.618796 L35.42976,17.618796 L35.42976,17.093135 C35.42976,16.785553 35.67892,16.536191 35.9864,16.536191 Z M4.01344,16.536191 C4.32096,16.536191 4.5702,16.785553 4.57008,17.093135 L4.57008,17.093135 L4.57008,17.618796 C4.57008,17.926378 4.32096,18.17533 4.01344,18.17533 C3.70596,18.17533 3.4568,17.926378 3.4568,17.618796 L3.4568,17.618796 L3.4568,17.093135 C3.4568,16.785553 3.70596,16.536191 4.01344,16.536191 Z M35.9864,13.380626 C36.29392,13.380626 36.54308,13.629988 36.54308,13.936791 L36.54308,13.936791 L36.54308,14.462862 C36.54308,14.770034 36.29392,15.018986 35.9864,15.018986 C35.67904,15.018986 35.42976,14.770034 35.42976,14.462862 L35.42976,14.462862 L35.42976,13.936791 C35.42976,13.629988 35.67892,13.380626 35.9864,13.380626 Z M4.01344,13.380626 C4.32096,13.380626 4.5702,13.629988 4.57008,13.936791 L4.57008,13.936791 L4.57008,14.462862 C4.57008,14.770034 4.32096,15.018986 4.01344,15.018986 C3.70596,15.018986 3.4568,14.770034 3.4568,14.462862 L3.4568,14.462862 L3.4568,13.936791 C3.4568,13.629988 3.70596,13.380626 4.01344,13.380626 Z M37.85948,4.998955 C38.48832,4.998955 39,5.510922 39,6.13978 L39,6.13978 L39,9.885868 C39,10.514726 38.48844,11.026283 37.85948,11.026283 L37.85948,11.026283 L34.11336,11.026283 C33.48452,11.026283 32.97296,10.514726 32.97296,9.885868 L32.97296,9.885868 L32.97296,6.13978 C32.97296,5.510922 33.4844,4.998955 34.11336,4.998955 L34.11336,4.998955 Z M5.88652,4.998955 C6.51536,4.998955 7.02692,5.510922 7.02692,6.13978 L7.02692,6.13978 L7.02692,9.885868 C7.02692,10.514726 6.51548,11.026283 5.88652,11.026283 L5.88652,11.026283 L2.1404,11.026283 C1.51156,11.026283 1,10.514726 1,9.885868 L1,9.885868 L1,6.13978 C1,5.510922 1.51156,4.998955 2.1404,4.998955 L2.1404,4.998955 Z M37.85948,6.112433 L34.11336,6.112433 C34.09976,6.112433 34.08624,6.125717 34.08624,6.13978 L34.08624,6.13978 L34.08624,9.885868 C34.08624,9.899562 34.09964,9.913625 34.11336,9.913625 L34.11336,9.913625 L37.85948,9.913625 C37.8732,9.913625 37.8866,9.899562 37.8866,9.885868 L37.8866,9.885868 L37.8866,6.13978 C37.8866,6.125717 37.8732,6.112433 37.85948,6.112433 L37.85948,6.112433 Z M5.88652,6.112433 L2.1404,6.112433 C2.1268,6.112433 2.11328,6.125717 2.11328,6.13978 L2.11328,6.13978 L2.11328,9.885868 C2.11328,9.899562 2.12668,9.913625 2.1404,9.913625 L2.1404,9.913625 L5.88652,9.913625 C5.90012,9.913625 5.91364,9.899562 5.91364,9.885868 L5.91364,9.885868 L5.91364,6.13978 C5.91364,6.125717 5.90024,6.112433 5.88652,6.112433 L5.88652,6.112433 Z M26.2428,7.456085 C26.55032,7.456085 26.79944,7.705037 26.79944,8.012619 C26.79944,8.320201 26.55032,8.569563 26.2428,8.569563 L26.2428,8.569563 L25.71696,8.569563 C25.40944,8.569563 25.16032,8.320201 25.16032,8.012619 C25.16032,7.705037 25.40944,7.456085 25.71696,7.456085 L25.71696,7.456085 Z M23.087,7.456085 C23.39448,7.456085 23.64364,7.705037 23.64364,8.012619 C23.64364,8.320201 23.39448,8.569563 23.087,8.569563 L23.087,8.569563 L22.561,8.569563 C22.25364,8.569563 22.00436,8.320201 22.00436,8.012619 C22.00436,7.705037 22.25352,7.456085 22.561,7.456085 L22.561,7.456085 Z M29.39864,7.456085 C29.70612,7.456085 29.95528,7.705037 29.95528,8.012619 C29.95528,8.320201 29.70612,8.569563 29.39864,8.569563 L29.39864,8.569563 L28.87276,8.569563 C28.56528,8.569563 28.31612,8.320201 28.31612,8.012619 C28.31612,7.705037 28.56528,7.456085 28.87276,7.456085 L28.87276,7.456085 Z M16.77532,7.456085 C17.08272,7.456085 17.33196,7.705037 17.33196,8.012619 C17.33196,8.320201 17.08272,8.569563 16.77532,8.569563 L16.77532,8.569563 L16.24936,8.569563 C15.94196,8.569563 15.69272,8.320201 15.69272,8.012619 C15.69272,7.705037 15.94188,7.456085 16.24936,7.456085 L16.24936,7.456085 Z M13.6194,7.456085 C13.927,7.456085 14.17604,7.705037 14.17604,8.012619 C14.17604,8.320201 13.92692,8.569563 13.6194,8.569563 L13.6194,8.569563 L13.09356,8.569563 C12.78604,8.569563 12.53692,8.320201 12.53692,8.012619 C12.53692,7.705037 12.78604,7.456085 13.09356,7.456085 L13.09356,7.456085 Z M19.93116,7.456085 C20.23868,7.456085 20.4878,7.705037 20.4878,8.012619 C20.4878,8.320201 20.23868,8.569563 19.93116,8.569563 L19.93116,8.569563 L19.4052,8.569563 C19.09768,8.569563 18.84856,8.320201 18.84856,8.012619 C18.84856,7.705037 19.09768,7.456085 19.4052,7.456085 L19.4052,7.456085 Z M10.46368,7.456085 C10.7712,7.456085 11.02032,7.705037 11.02032,8.012619 C11.02032,8.320201 10.7712,8.569563 10.46368,8.569563 L10.46368,8.569563 L9.9376,8.569563 C9.6302,8.569563 9.38096,8.320201 9.38096,8.012619 C9.38096,7.705037 9.6302,7.456085 9.9376,7.456085 L9.9376,7.456085 Z" id="Combined-shape-877备份"></path>
                    </g>
                </g>
            </g>
        </g>
    </g>
</svg>