<?xml version="1.0" encoding="UTF-8"?>
<svg width="39px" height="33px" viewBox="0 0 39 33" version="1.1" xmlns="http://www.w3.org/2000/svg" xmlns:xlink="http://www.w3.org/1999/xlink">
    <!-- Generator: Sketch 60 (88103) - https://sketch.com -->
    <title>Combined shape 880备份</title>
    <desc>Created with Sketch.</desc>
    <defs>
        <linearGradient x1="100%" y1="50%" x2="0%" y2="50%" id="linearGradient-1">
            <stop stop-color="#1175B6" offset="0%"></stop>
            <stop stop-color="#2AB287" offset="100%"></stop>
        </linearGradient>
    </defs>
    <g id="Page-1" stroke="none" stroke-width="1" fill="none" fill-rule="evenodd">
        <g id="Artboard" transform="translate(-778.000000, -2199.000000)" fill="url(#linearGradient-1)">
            <g id="More-Feature" transform="translate(373.000000, 1914.000000)">
                <g id="02" transform="translate(1.000000, 280.000000)">
                    <g transform="translate(402.000000, 0.000000)" id="Combined-shape-880备份">
                        <path d="M23.617902,4.998972 C23.774352,4.998972 23.92026,5.06658 24.021774,5.171304 L24.021774,5.171304 L28.729554,10.014852 C28.838964,10.127784 28.896966,10.281396 28.896966,10.430688 L28.896966,10.430688 L28.896966,15.659544 L32.860842,15.659544 C33.49794,15.659544 34.016262,16.193028 34.016262,16.848444 L34.016262,16.848444 L34.016262,19.045308 L35.739396,19.045308 C36.623664,19.045308 37.343166,19.78554 37.343166,20.695764 L37.343166,20.695764 L37.343166,26.848956 C37.343166,27.173352 37.087386,27.436764 36.771882,27.436764 C36.456378,27.436764 36.200598,27.173352 36.200598,26.848956 L36.200598,26.848956 L36.200598,24.802176 L6.799212,24.802176 L6.799212,31.119528 C6.799212,31.381392 7.006146,31.594404 7.260414,31.594404 L7.260414,31.594404 L11.543238,31.594404 L11.543238,29.26506 C11.543238,28.6491 12.030438,28.148052 12.629316,28.148052 L12.629316,28.148052 L30.370746,28.148052 C30.969624,28.148052 31.456782,28.6491 31.456782,29.26506 L31.456782,29.26506 L31.456782,31.594404 L35.739522,31.594404 C35.99379,31.594404 36.200682,31.380996 36.200682,31.119528 L36.200682,31.119528 L36.200682,29.591796 C36.200682,29.267004 36.456462,29.004384 36.772008,29.004384 C37.087512,29.004384 37.343292,29.267004 37.343292,29.591796 L37.343292,29.591796 L37.343292,31.119528 C37.343292,31.28484 37.31889,31.443528 37.274958,31.594404 L37.274958,31.594404 L39.489408,31.594404 C40.322268,31.594404 40.999896,32.291616 40.999896,33.148704 L40.999896,33.148704 L40.999896,36.444936 C40.999896,37.301628 40.322268,37.999272 39.489282,37.999272 L39.489282,37.999272 L22.832964,37.999272 C22.517586,37.999272 22.26168,37.736256 22.26168,37.411464 C22.26168,37.086672 22.517586,36.82326 22.832964,36.82326 L22.832964,36.82326 L39.489282,36.82326 C39.692058,36.82326 39.857076,36.653664 39.857076,36.444936 L39.857076,36.444936 L39.857076,33.148704 C39.857076,32.940012 39.692058,32.769984 39.489282,32.769984 L39.489282,32.769984 L28.896966,32.769984 L28.896966,34.23324 C28.896966,34.868352 28.39515,35.384628 27.778422,35.384628 L27.778422,35.384628 L15.164184,35.384628 C14.578914,35.384628 14.102718,34.894128 14.102718,34.29228 L14.102718,34.29228 L14.102718,32.769984 L3.510528,32.769984 C3.307626,32.769984 3.142608,32.940012 3.142608,33.148704 L3.142608,33.148704 L3.142608,36.444936 C3.142608,36.653664 3.307626,36.82326 3.510528,36.82326 L3.510528,36.82326 L20.16672,36.82326 C20.482224,36.82326 20.738004,37.086672 20.738004,37.411464 C20.738004,37.736256 20.482224,37.998876 20.16672,37.998876 L20.16672,37.998876 L3.510528,37.998876 C2.677626,37.998876 1.999914,37.301628 1.999914,36.444936 L1.999914,36.444936 L1.999914,33.148704 C1.999914,32.291616 2.6775,31.594404 3.510528,31.594404 L3.510528,31.594404 L5.724852,31.594404 C5.68092,31.443528 5.656518,31.28484 5.656518,31.119528 L5.656518,31.119528 L5.656518,20.695764 C5.656518,19.78554 6.37602,19.045308 7.260414,19.045308 L7.260414,19.045308 L8.983548,19.045308 L8.983548,16.848444 C8.983548,16.193028 9.50187,15.659544 10.138968,15.659544 L10.138968,15.659544 L14.102844,15.659544 L14.102844,6.2031 C14.102844,5.53908 14.627676,4.998972 15.273006,4.998972 L15.273006,4.998972 Z M27.754398,29.323668 L15.245412,29.323668 L15.245412,34.209012 L27.754398,34.209012 L27.754398,29.323668 Z M14.102844,29.323272 L12.685848,29.323272 L12.685848,31.594404 L14.102844,31.594404 L14.102844,29.323272 Z M30.313962,29.323272 L28.896966,29.323272 L28.896966,31.594404 L30.313962,31.594404 L30.313962,29.323272 Z M35.739396,20.220924 L7.260414,20.220924 C7.006146,20.220924 6.799212,20.4339 6.799212,20.695764 L6.799212,20.695764 L6.799212,23.626596 L36.200598,23.626596 L36.200598,20.695764 C36.200598,20.4339 35.993664,20.220924 35.739396,20.220924 L35.739396,20.220924 Z M30.885372,21.335952 C31.200876,21.335952 31.456656,21.599364 31.456656,21.92376 C31.456656,22.248516 31.200876,22.511568 30.885372,22.511568 L30.885372,22.511568 L28.325682,22.511568 C28.010178,22.511568 27.754398,22.248516 27.754398,21.92376 C27.754398,21.599364 28.010178,21.335952 28.325682,21.335952 L28.325682,21.335952 Z M32.860968,16.83516 L28.896966,16.83516 L28.896966,19.045308 L32.873652,19.045308 L32.873652,16.848444 C32.873652,16.841028 32.86794,16.83516 32.860968,16.83516 L32.860968,16.83516 Z M23.046744,6.174552 L15.27288,6.174552 C15.257802,6.174552 15.245412,6.187476 15.245412,6.2031 L15.245412,6.2031 L15.245412,19.045308 L27.754398,19.045308 L27.754398,11.018892 L24.21678,11.018892 C23.571576,11.018892 23.046744,10.478748 23.046744,9.814728 L23.046744,9.814728 L23.046744,6.174552 Z M14.102844,16.83516 L10.138842,16.83516 C10.13187,16.83516 10.126116,16.841028 10.126116,16.848444 L10.126116,16.848444 L10.126116,19.045308 L14.102844,19.045308 L14.102844,16.83516 Z M24.189438,7.00626 L24.189438,9.814728 C24.189438,9.829992 24.201786,9.842484 24.21678,9.842484 L24.21678,9.842484 L26.946444,9.842484 L24.189438,7.00626 Z"></path>
                    </g>
                </g>
            </g>
        </g>
    </g>
</svg>