<?xml version="1.0" encoding="UTF-8"?>
<svg width="39px" height="39px" viewBox="0 0 39 39" version="1.1" xmlns="http://www.w3.org/2000/svg" xmlns:xlink="http://www.w3.org/1999/xlink">
    <!-- Generator: Sketch 60 (88103) - https://sketch.com -->
    <title>Combined shape 879备份</title>
    <desc>Created with Sketch.</desc>
    <defs>
        <linearGradient x1="100%" y1="50%" x2="0%" y2="50%" id="linearGradient-1">
            <stop stop-color="#1175B6" offset="0%"></stop>
            <stop stop-color="#2AB287" offset="100%"></stop>
        </linearGradient>
    </defs>
    <g id="Page-1" stroke="none" stroke-width="1" fill="none" fill-rule="evenodd">
        <g id="Artboard" transform="translate(-1180.000000, -2199.000000)" fill="url(#linearGradient-1)">
            <g id="More-Feature" transform="translate(373.000000, 1914.000000)">
                <g id="02" transform="translate(1.000000, 280.000000)">
                    <g id="03" transform="translate(804.000000, 0.000000)">
                        <path d="M25.064046,4.998948 C25.68867,4.998948 26.19666,5.507442 26.196534,6.131982 L26.196534,6.131982 L26.196534,9.414912 C27.111294,9.69942 27.998754,10.067214 28.844844,10.512372 L28.844844,10.512372 L31.166478,8.190444 C31.607982,7.748814 32.326476,7.748814 32.768106,8.190444 L32.768106,8.190444 L37.808736,13.231368 C38.251416,13.673376 38.25129,14.389392 37.808736,14.832198 L37.808736,14.832198 L35.487102,17.154084 C35.931924,18.000636 36.299718,18.887424 36.584226,19.802352 L36.584226,19.802352 L39.867324,19.802352 C40.491822,19.802352 40.999812,20.310006 40.999812,20.934966 L40.999812,20.934966 L40.999812,23.166174 C40.999812,23.481594 40.744158,23.737584 40.428528,23.737584 C40.112898,23.737584 39.857244,23.481594 39.857244,23.166174 L39.857244,23.166174 L39.857244,20.945508 L36.15759,20.945508 C35.9016,20.945508 35.676816,20.774316 35.6076,20.52849 C35.29449,19.41423 34.848954,18.338694 34.283382,17.331912 C34.157844,17.108346 34.196316,16.82892 34.377378,16.647984 L34.377378,16.647984 L36.993726,14.03214 L31.96746,9.005706 L29.351112,11.62155 C29.16984,11.802864 28.890246,11.841168 28.6671,11.715714 C27.660822,11.150184 26.585412,10.704648 25.470858,10.39158 C25.22436,10.322826 25.054092,10.097706 25.054092,9.841296 L25.054092,9.841296 L25.054092,6.141726 L17.945802,6.141726 L17.945802,9.841296 C17.945802,10.097706 17.775408,10.322826 17.529036,10.39158 C16.414692,10.704648 15.339324,11.150184 14.332668,11.715714 C14.109522,11.841168 13.829928,11.802864 13.648656,11.62155 L13.648656,11.62155 L11.032434,9.005706 L6.006084,14.03214 L8.622432,16.647984 C8.803494,16.82892 8.841924,17.108346 8.716512,17.331912 C8.15094,18.338694 7.70532,19.41423 7.392294,20.52849 C7.323078,20.774316 7.098294,20.94513 6.842304,20.94513 L6.842304,20.94513 L3.142524,20.94513 L3.142524,28.053084 L6.842178,28.053084 C7.098294,28.053084 7.322952,28.223898 7.39221,28.470102 C7.70532,29.58474 8.150814,30.65952 8.716386,31.66668 C8.841924,31.889448 8.803494,32.168916 8.622432,32.35023 L8.622432,32.35023 L6.006084,34.96683 L11.032308,39.992886 L13.648572,37.376664 C13.829844,37.196106 14.109186,37.157046 14.332584,37.282878 C15.118908,37.724508 15.947316,38.091504 16.803108,38.381094 L16.803108,38.381094 L16.803108,35.574192 C12.485844,33.742362 9.470454,29.474154 9.470454,24.499674 C9.470454,18.389892 14.040642,13.254006 20.1012,12.551304 C20.41431,12.514554 20.69802,12.739674 20.734518,13.05312 C20.77068,13.366566 20.546148,13.650318 20.232702,13.686648 C14.748678,14.321772 10.613232,18.970668 10.613232,24.499674 C10.613232,28.73823 13.020504,32.518314 16.803234,34.322382 L16.803234,34.322382 L16.803234,33.263226 C13.562388,31.525602 11.557056,28.18677 11.557056,24.499674 C11.557056,19.016364 16.017498,14.556258 21.50001,14.556258 C26.982648,14.556258 31.44309,19.016364 31.44309,24.499674 C31.44309,28.182066 29.436582,31.525602 26.196786,33.263226 L26.196786,33.263226 L26.196786,34.322382 C29.979264,32.518314 32.386662,28.737432 32.386662,24.499674 C32.386662,18.970668 28.251216,14.321772 22.767444,13.686648 C22.453998,13.650318 22.22934,13.366566 22.265628,13.05312 C22.301916,12.739674 22.586634,12.514974 22.898946,12.551304 C28.959168,13.254006 33.52923,18.39027 33.52923,24.499674 C33.52923,29.397924 30.585912,33.711912 26.196786,35.574192 L26.196786,35.574192 L26.196786,38.381094 C27.052578,38.091504 27.880986,37.724508 28.66731,37.282878 C28.890498,37.157046 29.17005,37.196106 29.351112,37.376664 L29.351112,37.376664 L31.96746,39.993264 L36.99381,34.96683 L34.377462,32.35023 C34.196442,32.168916 34.158096,31.889448 34.283508,31.66668 C34.84908,30.659898 35.2947,29.58474 35.607726,28.470522 C35.676942,28.223898 35.901726,28.053084 36.157716,28.053084 L36.157716,28.053084 L39.85737,28.053084 L39.85737,25.832418 C39.85737,25.51662 40.113024,25.261008 40.428654,25.261008 C40.744284,25.261008 40.999938,25.51662 40.999938,25.832418 L40.999938,25.832418 L40.999938,28.063248 C40.999938,28.688208 40.491822,29.196282 39.86745,29.196282 L39.86745,29.196282 L36.584226,29.196282 C36.29997,30.110412 35.932134,30.997578 35.487186,31.84413 L35.487186,31.84413 L37.808862,34.166016 C38.251416,34.608444 38.251416,35.324838 37.808862,35.767266 L37.808862,35.767266 L32.76819,40.80777 C32.325552,41.250954 31.609242,41.250576 31.166604,40.80777 L31.166604,40.80777 L28.844928,38.48664 C27.99867,38.931378 27.111042,39.299172 26.196786,39.583302 L26.196786,39.583302 L26.196786,42.86703 C26.196786,43.490772 25.688754,43.999266 25.064172,43.999266 L25.064172,43.999266 L17.935638,43.999266 C17.31114,43.999266 16.803108,43.490772 16.803108,42.86703 L16.803108,42.86703 L16.803108,39.583302 C15.888852,39.299172 15.00114,38.931378 14.15484,38.48664 L14.15484,38.48664 L11.83329,40.80777 C11.390652,41.250954 10.674342,41.250576 10.231704,40.80777 L10.231704,40.80777 L5.191032,35.767266 C4.749528,35.326014 4.749528,34.607268 5.191032,34.166016 L5.191032,34.166016 L7.512708,31.84413 C7.06776,30.997578 6.699924,30.110412 6.415668,29.196282 L6.415668,29.196282 L3.13236,29.196282 C2.507946,29.196282 1.999956,28.688208 1.999956,28.063248 L1.999956,28.063248 L1.999956,20.934966 C1.999956,20.310006 2.507946,19.802352 3.132486,19.802352 L3.132486,19.802352 L6.415668,19.802352 C6.699924,18.887424 7.06776,18.000636 7.512708,17.154084 L7.512708,17.154084 L5.190906,14.832198 C4.749402,14.390526 4.749402,13.672578 5.190906,13.231368 L5.190906,13.231368 L10.231578,8.190444 C10.673208,7.748436 11.391786,7.748436 11.83329,8.190444 L11.83329,8.190444 L14.15484,10.512372 C15.00114,10.067214 15.888516,9.69942 16.803024,9.414912 L16.803024,9.414912 L16.803024,6.131982 C16.803024,5.507442 17.311014,4.998948 17.935512,4.998948 L17.935512,4.998948 Z M20.928474,27.102624 L17.945718,27.102624 L17.945718,42.856488 L20.928474,42.856488 L20.928474,27.102624 Z M25.053966,27.102624 L22.071168,27.102624 L22.071168,42.856488 L25.053966,42.856488 L25.053966,27.102624 Z M21.499884,15.699036 C16.647246,15.699036 12.699498,19.646406 12.699498,24.499674 C12.699498,27.553242 14.253498,30.33633 16.803108,31.94262 L16.803108,31.94262 L16.803108,26.531214 C16.803108,26.451876 16.821084,26.364726 16.857834,26.28732 C17.663814,24.577878 19.77402,20.102484 20.57727,18.39888 C20.940402,17.62818 22.051722,17.612514 22.422498,18.39888 L22.422498,18.39888 L26.14206,26.28732 C26.178474,26.36355 26.19666,26.45385 26.19666,26.531214 L26.19666,26.531214 L26.19666,31.942242 C28.745388,30.335532 30.30027,27.549336 30.30027,24.499674 C30.30027,19.646406 26.352522,15.699036 21.499884,15.699036 Z M23.738358,23.868876 L19.261326,23.868876 L18.275418,25.959426 L24.724266,25.959426 L23.738358,23.868876 Z M21.499884,19.121532 L19.800102,22.726098 L23.199582,22.726098 C22.14786,20.495268 22.555386,21.359376 21.499884,19.121532 L21.499884,19.121532 Z" id="Combined-shape-879备份"></path>
                    </g>
                </g>
            </g>
        </g>
    </g>
</svg>