<?xml version="1.0" encoding="UTF-8"?>
<svg width="39px" height="34px" viewBox="0 0 39 34" version="1.1" xmlns="http://www.w3.org/2000/svg" xmlns:xlink="http://www.w3.org/1999/xlink">
    <!-- Generator: Sketch 60 (88103) - https://sketch.com -->
    <title>Combined shape 1176备份</title>
    <desc>Created with Sketch.</desc>
    <defs>
        <linearGradient x1="100%" y1="50%" x2="0%" y2="50%" id="linearGradient-1">
            <stop stop-color="#1175B6" offset="0%"></stop>
            <stop stop-color="#2AB287" offset="100%"></stop>
        </linearGradient>
    </defs>
    <g id="Page-1" stroke="none" stroke-width="1" fill="none" fill-rule="evenodd">
        <g id="Artboard" transform="translate(-1181.000000, -2037.000000)" fill="url(#linearGradient-1)">
            <g id="More-Feature" transform="translate(373.000000, 1914.000000)">
                <g id="01" transform="translate(0.000000, 118.000000)">
                    <g id="03" transform="translate(807.000000, 0.000000)">
                        <path d="M38.63356,22.6859747 C38.9374,22.6859747 39.18364,22.9300743 39.18356,23.2315657 L39.18356,23.2315657 L39.18356,37.0435518 C39.18356,37.7285331 38.622,38.2852865 37.93172,38.2852865 L37.93172,38.2852865 L21.69176,38.2852865 C21.38784,38.2852865 21.14168,38.0409061 21.14168,37.7397306 C21.14168,37.4385551 21.38784,37.1944555 21.69176,37.1944555 L21.69176,37.1944555 L37.9318,37.1944555 C38.0154,37.1944555 38.08352,37.126849 38.08352,37.0435518 L38.08352,37.0435518 L38.08352,23.2315657 C38.08352,22.9300743 38.32968,22.6859747 38.63356,22.6859747 Z M37.93172,5.63217469 C38.57876,5.63217469 39.11284,6.12160245 39.17712,6.74659429 C39.1814,6.78871673 39.18364,6.83083918 39.18356,6.87327755 L39.18356,6.87327755 L39.18356,20.6862114 C39.18356,20.987071 38.9374,21.2314865 38.63348,21.2314865 C38.32968,21.2314865 38.08344,20.987071 38.08344,20.6862114 L38.08344,20.6862114 L38.08344,11.4205714 L2.73276,11.4205714 L2.73276,37.0438678 C2.73276,37.126849 2.80076,37.1944555 2.88448,37.1944555 L2.88448,37.1944555 L19.12452,37.1944555 C19.42832,37.1944555 19.6746,37.4385551 19.6746,37.7397306 C19.6746,38.041222 19.42832,38.2852865 19.12452,38.2852865 L19.12452,38.2852865 L2.88448,38.2852865 C2.1942,38.2852865 1.63264,37.7285331 1.63264,37.0435518 L1.63264,37.0435518 L1.63264,6.87327755 C1.63264,6.83083918 1.6348,6.78871673 1.63908,6.74659429 C1.70328,6.12160245 2.23736,5.63217469 2.88448,5.63217469 L2.88448,5.63217469 Z M26.668,15.0177935 C27.1024,15.0177935 27.50888,15.208889 27.78316,15.54292 L27.78316,15.54292 L32.02028,20.7018669 C32.1878,20.9057396 32.18096,21.2069151 32.00944,21.4034514 L32.00944,21.4034514 L21.16596,33.8059151 C20.76988,34.259258 20.05128,34.2643829 19.65032,33.8059151 L19.65032,33.8059151 L8.80672,21.4034514 C8.63276,21.2043527 8.63044,20.9028612 8.79588,20.701551 L8.79588,20.701551 L13.03292,15.54292 C13.3072,15.208889 13.71384,15.0177935 14.14828,15.0177935 L14.14828,15.0177935 Z M24.29512,21.5913527 L16.52124,21.5913527 L20.40812,32.2381527 L24.29512,21.5913527 Z M15.35116,21.5913527 L10.42732,21.5913527 L18.88156,31.2615437 L15.35116,21.5913527 Z M30.38888,21.5913527 L25.46512,21.5913527 L21.93464,31.2615437 L30.38888,21.5913527 Z M22.80456,16.1085894 L18.0116,16.1085894 L16.50508,20.5008727 L24.31108,20.5008727 L22.80456,16.1085894 Z M16.84952,16.1085894 L14.14828,16.1085894 C14.04616,16.1085894 13.95048,16.1532743 13.88604,16.2320784 L13.88604,16.2320784 L10.37984,20.5008727 L15.34292,20.5008727 L16.84952,16.1085894 Z M26.66812,16.1082735 L23.96664,16.1082735 L25.47324,20.5008727 L30.43632,20.5008727 L26.93016,16.2320784 C26.86568,16.1532743 26.77012,16.1085894 26.66812,16.1082735 L26.66812,16.1082735 Z M6.54284,6.72300571 L2.88448,6.72300571 C2.81124,6.72300571 2.75004,6.77467592 2.73584,6.84326531 C2.73388,6.85284816 2.73276,6.86337878 2.73276,6.87327755 L2.73276,6.87327755 L2.73276,10.3294596 L6.54284,10.3294596 L6.54284,6.72300571 Z M37.93172,6.72300571 L7.64308,6.72300571 L7.64308,10.3294596 L38.08332,10.3294596 L38.08332,6.87327755 C38.08332,6.86337878 38.08232,6.85284816 38.08024,6.84326531 C38.06612,6.77467592 38.00484,6.72300571 37.93172,6.72300571 L37.93172,6.72300571 Z" id="Combined-shape-1176备份"></path>
                    </g>
                </g>
            </g>
        </g>
    </g>
</svg>