<?xml version="1.0" encoding="UTF-8"?>
<svg width="38px" height="38px" viewBox="0 0 38 38" version="1.1" xmlns="http://www.w3.org/2000/svg" xmlns:xlink="http://www.w3.org/1999/xlink">
    <!-- Generator: Sketch 60 (88103) - https://sketch.com -->
    <title>Combined shape 847备份</title>
    <desc>Created with Sketch.</desc>
    <defs>
        <linearGradient x1="100%" y1="50%" x2="0%" y2="50%" id="linearGradient-1">
            <stop stop-color="#1175B6" offset="0%"></stop>
            <stop stop-color="#2AB287" offset="100%"></stop>
        </linearGradient>
    </defs>
    <g id="Page-1" stroke="none" stroke-width="1" fill="none" fill-rule="evenodd">
        <g id="Artboard" transform="translate(-778.000000, -2037.000000)" fill="url(#linearGradient-1)">
            <g id="More-Feature" transform="translate(373.000000, 1914.000000)">
                <g id="01" transform="translate(0.000000, 118.000000)">
                    <g id="02" transform="translate(400.000000, 0.000000)">
                        <path d="M24.02181,4.998955 C34.011855,4.998955 42.280425,12.7252 42.994305,22.636581 C43.01649,22.943384 42.78546,23.210745 42.47838,23.232598 C42.171795,23.254492 41.904495,23.023908 41.88249,22.716326 C41.225265,13.592473 33.67665,6.40669 24.57927,6.123339 L24.57927,6.123339 L24.57927,10.584262 C24.58683,10.588157 24.59439,10.591273 24.601815,10.595988 L24.601815,10.595988 L34.607025,16.372396 C34.964775,16.579159 35.18703,16.964108 35.18703,17.376855 C35.18703,31.976217 35.18964,31.173437 35.18163,31.261792 L35.18163,31.261792 L39.16476,33.561031 C40.711545,31.117964 41.68395,28.27978 41.88798,25.240286 C41.908725,24.933114 42.173775,24.700972 42.481485,24.721267 C42.78852,24.741972 43.02072,25.008144 43.000245,25.314947 C42.36579,34.763192 34.82289,42.339377 25.36101,42.99755 L25.36101,42.99755 L25.32177,42.999108 C25.03152,42.999108 24.786765,42.774756 24.76638,42.480499 C24.74496,42.173696 24.97662,41.907155 25.283655,41.88604 C30.72267,41.507323 35.50986,38.669918 38.537415,34.486483 L38.537415,34.486483 L34.5591,32.189212 L24.601815,37.937904 C24.42294,38.04147 24.222465,38.093048 24.021945,38.093048 C23.821335,38.093048 23.62095,38.041839 23.442075,37.937904 L23.442075,37.937904 L13.4847,32.189212 L9.508995,34.484925 C12.52611,38.658192 17.296245,41.505765 22.760235,41.88604 C23.06727,41.907155 23.298795,42.173696 23.27751,42.480499 C23.257035,42.774756 23.012235,42.999108 22.72203,42.999108 L22.72203,42.999108 L22.682745,42.99755 C12.761775,42.306946 4.999005,34.041715 4.999005,24.022094 C4.999005,13.507275 13.50792,4.998955 24.02181,4.998955 Z M13.97151,18.45864 L13.97151,31.07065 C13.97151,31.140227 14.00895,31.20472 14.069025,31.239488 C14.7474,31.63112 23.16789,36.493023 23.464485,36.664567 L23.464395,36.664567 L23.464395,23.933739 C23.37786,23.893108 23.954985,24.222174 13.97151,18.45864 L13.97151,18.45864 Z M34.072155,18.45905 C24.6775066,23.8823202 24.6318174,23.9112766 24.5891918,23.9289583 L24.579135,23.93337 L24.579135,36.664198 L34.01433,31.216815 C34.03161,31.1875 34.05096,31.161342 34.072245,31.137111 L34.072155,31.137111 Z M23.464485,6.123339 C9.680535,6.547402 1.488735,21.872136 8.8821,33.559432 L8.8821,33.559432 L12.862215,31.261792 C12.8592504,31.22901 12.8577263,31.3378461 12.8569898,30.8043477 L12.85686,17.376855 C12.85686,16.964108 13.07898,16.579159 13.43673,16.372396 C13.723146,16.2073202 22.3509912,11.2261673 23.2907472,10.6834229 L23.367015,10.639366 L23.44194,10.595988 C23.44941,10.591683 23.45706,10.588157 23.464485,10.584262 L23.464485,10.584262 Z M24.198525,11.650426 C24.14304,11.669204 24.08373,11.679741 24.021945,11.679741 C23.96016,11.679741 23.90085,11.669204 23.845365,11.650426 C23.768235,11.694583 14.330745,17.143893 14.127165,17.261563 L14.127165,17.261563 L23.92434,22.917595 C23.985225,22.953183 24.06429,22.949247 24.119325,22.917595 L24.119325,22.917595 L33.916635,17.261563 Z" id="Combined-shape-847备份"></path>
                    </g>
                </g>
            </g>
        </g>
    </g>
</svg>