<?xml version="1.0" encoding="utf-8"?>
<!-- Generator: Adobe Illustrator 19.0.0, SVG Export Plug-In . SVG Version: 6.00 Build 0)  -->
<svg version="1.1" id="图层_1" xmlns="http://www.w3.org/2000/svg" xmlns:xlink="http://www.w3.org/1999/xlink" x="0px" y="0px"
	 viewBox="0 0 2241.2 399" style="enable-background:new 0 0 2241.2 399;" xml:space="preserve">
<style type="text/css">
	.st0{fill:url(#SVGID_1_);}
	.st1{fill:#2F83C6;}
</style>
<linearGradient id="SVGID_1_" gradientUnits="userSpaceOnUse" x1="57.0899" y1="197.0428" x2="412.0691" y2="197.0428">
	<stop  offset="0" style="stop-color:#1175B6"/>
	<stop  offset="1" style="stop-color:#2AB287"/>
</linearGradient>
<path class="st0" d="M382,240v-89.1c16.6,0,30.1-13.5,30.1-30.1c0-16.6-13.5-30.1-30.1-30.1c-12.1,0-22.5,7.1-27.3,17.4l-92-47.4
	c1.3-3.4,2-7,2-10.8c0-16.6-13.5-30.1-30.1-30.1S204.5,33.3,204.5,50c0,4.1,0.8,8.1,2.4,11.7L114.9,109
	c-4.6-10.8-15.3-18.3-27.7-18.3c-16.6,0-30.1,13.5-30.1,30.1c0,16.6,13.5,30.1,30.1,30.1c0.7,0,1.3,0,2-0.1v89.2
	c-0.7,0-1.3-0.1-2-0.1c-16.6,0-30.1,13.5-30.1,30.1c0,16.6,13.5,30.1,30.1,30.1c11,0,20.7-5.9,25.9-14.8l93.3,48.1
	c-1.3,3.3-1.9,6.9-1.9,10.6c0,16.6,13.5,30.1,30.1,30.1s30.1-13.5,30.1-30.1c0-3.4-0.6-6.7-1.6-9.8l93.5-48.2
	c5.3,8.4,14.7,14,25.4,14c16.6,0,30.1-13.5,30.1-30.1C412.1,253.5,398.6,240,382,240z M377.7,240.3c-11.1,1.6-20.2,9.1-24,19.3
	l-34.6-13c0.1-0.7,0.1-1.5,0.1-2.3c0-5.5-2.4-10.5-6.2-14l54.9-83c3,1.6,6.3,2.7,9.8,3.2V240.3z M234.6,314
	c-5.6,0-10.7,1.5-15.2,4.1l-39-59c3.8-3,6.4-7.3,7-12.3h94.4c0.6,4.8,3.1,9.1,6.7,12l-39,59C245.1,315.4,240,314,234.6,314z
	 M117.3,120.8c0-0.3,0-0.5,0-0.7h98.6c0.7,5.6,3.8,10.5,8.3,13.5L172,225.9c-1.1-0.2-2.2-0.3-3.3-0.3c-3.3,0-6.4,0.8-9.1,2.3
	l-54.7-82.7C112.4,139.7,117.3,130.8,117.3,120.8z M351.9,120.1c0,0.2,0,0.5,0,0.7c0,9.9,4.7,18.6,12.1,24.1l-54.8,82.8
	c-2.6-1.4-5.6-2.2-8.7-2.2c-1.3,0-2.5,0.1-3.7,0.4l-52.1-92.2c4.7-3,8-7.9,8.6-13.7H351.9z M187.5,242.8c-0.2-2.8-1.1-5.4-2.4-7.8
	l39.7-28.3c2.4,2.7,5.9,4.4,9.8,4.4c4.3,0,8.1-2,10.5-5.2l39.6,28.2c-1.6,2.5-2.7,5.5-3,8.6H187.5z M287.5,230.8L247.1,202
	c0.4-1.3,0.6-2.6,0.6-4.1c0-6.5-4.7-11.9-11-13v-48.5c1.5-0.2,2.9-0.5,4.2-1l51.8,91.6C290.8,228.1,289,229.3,287.5,230.8z
	 M232.4,136.5V185c-6.2,1-11,6.4-11,13c0,1.8,0.4,3.5,1,5.1l-40,28.5c-1.8-1.9-4-3.4-6.4-4.5l51.8-91.6
	C229.3,136,230.8,136.4,232.4,136.5z M353.2,111.8c-0.4,1.3-0.7,2.6-0.9,4h-99c-0.9-8.7-7.8-15.6-16.5-16.6V80
	c10.5-0.8,19.5-6.9,24.3-15.6L353.2,111.8z M208.6,65.1c4.9,8.3,13.6,14.1,23.8,14.8v19.2c-8.7,1-15.6,7.9-16.5,16.6h-99
	c-0.2-1-0.4-2.1-0.7-3.1L208.6,65.1z M93.5,150.3c2.6-0.6,5.1-1.5,7.4-2.6l54.9,83c-3.7,3.4-5.9,8.3-5.9,13.7c0,1,0.1,2,0.2,2.9
	l-34.5,12.9c-3.4-9.8-11.8-17.4-22.2-19.6V150.3z M114.9,281.9c1.6-3.6,2.4-7.6,2.4-11.8c0-1.9-0.2-3.8-0.5-5.6l34.6-13
	c2.8,6.8,9.5,11.7,17.4,11.7c2.7,0,5.3-0.6,7.6-1.6l39.2,59.2c-3,2.5-5.6,5.6-7.5,9.1L114.9,281.9z M261.5,330.7
	c-2-4-4.8-7.4-8.2-10.1l39.1-59.1c2.4,1.1,5.1,1.8,7.9,1.8c8.1,0,15-5.1,17.6-12.3l34.4,12.9c-0.4,2-0.7,4.1-0.7,6.2
	c0,4.5,1,8.8,2.8,12.7L261.5,330.7z"/>
<g>
	<path class="st1" d="M549.7,208.7l20,6.4c-3.1,11.2-8.2,19.5-15.3,24.9c-7.1,5.4-16.2,8.1-27.2,8.1c-13.6,0-24.8-4.6-33.5-13.9
		c-8.8-9.3-13.1-22-13.1-38.1c0-17,4.4-30.3,13.2-39.7c8.8-9.4,20.4-14.1,34.7-14.1c12.5,0,22.7,3.7,30.5,11.1
		c4.7,4.4,8.1,10.7,10.5,18.9L549,177c-1.2-5.3-3.7-9.5-7.6-12.6c-3.8-3.1-8.5-4.6-14-4.6c-7.6,0-13.7,2.7-18.5,8.2
		c-4.7,5.4-7.1,14.3-7.1,26.5c0,12.9,2.3,22.2,7,27.7c4.7,5.5,10.7,8.2,18.2,8.2c5.5,0,10.2-1.7,14.2-5.2
		C545.1,221.6,548,216.2,549.7,208.7z"/>
	<path class="st1" d="M582.8,208.2c0-6.5,1.6-12.8,4.8-18.9c3.2-6.1,7.8-10.8,13.7-14c5.9-3.2,12.5-4.8,19.7-4.8
		c11.2,0,20.4,3.6,27.6,10.9c7.2,7.3,10.8,16.5,10.8,27.6c0,11.2-3.6,20.5-10.9,27.9c-7.2,7.4-16.4,11.1-27.3,11.1
		c-6.8,0-13.3-1.5-19.4-4.6c-6.2-3.1-10.9-7.6-14.1-13.5C584.4,223.9,582.8,216.7,582.8,208.2z M602.9,209.2c0,7.4,1.7,13,5.2,16.9
		c3.5,3.9,7.8,5.9,12.9,5.9c5.1,0,9.4-2,12.9-5.9c3.5-3.9,5.2-9.6,5.2-17c0-7.3-1.7-12.8-5.2-16.8c-3.5-3.9-7.8-5.9-12.9-5.9
		c-5.1,0-9.4,2-12.9,5.9C604.7,196.2,602.9,201.9,602.9,209.2z"/>
	<path class="st1" d="M742.1,246.3h-19.6v-37.8c0-8-0.4-13.2-1.3-15.5c-0.8-2.3-2.2-4.2-4.1-5.5c-1.9-1.3-4.2-2-6.8-2
		c-3.4,0-6.4,0.9-9.1,2.8c-2.7,1.9-4.5,4.3-5.6,7.4c-1,3.1-1.5,8.8-1.5,17v33.6h-19.6v-74.2h18.2V183c6.5-8.4,14.6-12.6,24.4-12.6
		c4.3,0,8.3,0.8,11.9,2.3c3.6,1.6,6.3,3.6,8.1,6c1.8,2.4,3.1,5.2,3.8,8.2s1.1,7.5,1.1,13.2V246.3z"/>
	<path class="st1" d="M755.1,225.1l19.7-3c0.8,3.8,2.5,6.7,5.1,8.7c2.6,2,6.1,3,10.8,3c5.1,0,8.9-0.9,11.5-2.8
		c1.7-1.3,2.6-3,2.6-5.2c0-1.5-0.5-2.7-1.4-3.7c-1-0.9-3.2-1.8-6.6-2.6c-15.8-3.5-25.9-6.7-30.1-9.6c-5.9-4-8.8-9.6-8.8-16.7
		c0-6.4,2.5-11.8,7.6-16.2c5.1-4.4,12.9-6.6,23.6-6.6c10.1,0,17.7,1.7,22.6,5c4.9,3.3,8.3,8.2,10.2,14.7l-18.5,3.4
		c-0.8-2.9-2.3-5.1-4.5-6.6c-2.2-1.5-5.4-2.3-9.5-2.3c-5.2,0-8.9,0.7-11.1,2.2c-1.5,1-2.2,2.4-2.2,4c0,1.4,0.7,2.6,2,3.6
		c1.8,1.3,7.9,3.1,18.3,5.5c10.4,2.4,17.7,5.3,21.9,8.7c4.1,3.5,6.1,8.4,6.1,14.6c0,6.8-2.8,12.6-8.5,17.5
		c-5.7,4.9-14.1,7.3-25.2,7.3c-10.1,0-18.1-2-24-6.1C760.8,237.7,756.9,232.2,755.1,225.1z"/>
	<path class="st1" d="M884.5,222.7l19.6,3.3c-2.5,7.2-6.5,12.6-11.9,16.4c-5.4,3.7-12.2,5.6-20.4,5.6c-12.9,0-22.4-4.2-28.6-12.6
		c-4.9-6.7-7.3-15.3-7.3-25.6c0-12.3,3.2-21.9,9.6-28.9c6.4-7,14.5-10.4,24.4-10.4c11,0,19.7,3.6,26.1,10.9
		c6.4,7.3,9.4,18.4,9.1,33.5H856c0.1,5.8,1.7,10.3,4.7,13.6c3,3.2,6.8,4.9,11.3,4.9c3.1,0,5.7-0.8,7.8-2.5S883.4,226.4,884.5,222.7z
		 M885.6,202.9c-0.1-5.7-1.6-10-4.4-13s-6.2-4.4-10.2-4.4c-4.3,0-7.8,1.6-10.6,4.7c-2.8,3.1-4.2,7.4-4.1,12.7H885.6z"/>
	<path class="st1" d="M988.6,246.3h-19.6v-37.8c0-8-0.4-13.2-1.3-15.5c-0.8-2.3-2.2-4.2-4.1-5.5c-1.9-1.3-4.2-2-6.8-2
		c-3.4,0-6.4,0.9-9.1,2.8c-2.7,1.9-4.5,4.3-5.6,7.4c-1,3.1-1.5,8.8-1.5,17v33.6H921v-74.2h18.2V183c6.5-8.4,14.6-12.6,24.4-12.6
		c4.3,0,8.3,0.8,11.9,2.3c3.6,1.6,6.3,3.6,8.1,6c1.8,2.4,3.1,5.2,3.8,8.2s1.1,7.5,1.1,13.2V246.3z"/>
	<path class="st1" d="M1001.5,225.1l19.7-3c0.8,3.8,2.5,6.7,5.1,8.7c2.6,2,6.1,3,10.8,3c5.1,0,8.9-0.9,11.5-2.8
		c1.7-1.3,2.6-3,2.6-5.2c0-1.5-0.5-2.7-1.4-3.7c-1-0.9-3.2-1.8-6.6-2.6c-15.8-3.5-25.9-6.7-30.1-9.6c-5.9-4-8.8-9.6-8.8-16.7
		c0-6.4,2.5-11.8,7.6-16.2c5.1-4.4,12.9-6.6,23.6-6.6c10.1,0,17.7,1.7,22.6,5c4.9,3.3,8.3,8.2,10.2,14.7l-18.5,3.4
		c-0.8-2.9-2.3-5.1-4.5-6.6c-2.2-1.5-5.4-2.3-9.5-2.3c-5.2,0-8.9,0.7-11.1,2.2c-1.5,1-2.2,2.4-2.2,4c0,1.4,0.7,2.6,2,3.6
		c1.8,1.3,7.9,3.1,18.3,5.5c10.4,2.4,17.7,5.3,21.9,8.7c4.1,3.5,6.1,8.4,6.1,14.6c0,6.8-2.8,12.6-8.5,17.5
		c-5.7,4.9-14.1,7.3-25.2,7.3c-10.1,0-18.1-2-24-6.1C1007.2,237.7,1003.4,232.2,1001.5,225.1z"/>
	<path class="st1" d="M1136.8,246.3v-11.1c-2.7,4-6.2,7.1-10.6,9.4c-4.4,2.3-9,3.4-13.9,3.4c-5,0-9.5-1.1-13.4-3.3
		c-4-2.2-6.8-5.3-8.6-9.2c-1.8-4-2.7-9.4-2.7-16.4v-46.9h19.6v34.1c0,10.4,0.4,16.8,1.1,19.2s2,4.2,3.9,5.6c1.9,1.4,4.3,2.1,7.3,2.1
		c3.4,0,6.4-0.9,9-2.8c2.7-1.8,4.5-4.1,5.4-6.8c1-2.7,1.5-9.4,1.5-20v-31.3h19.6v74.2H1136.8z"/>
	<path class="st1" d="M1168.4,225.1l19.7-3c0.8,3.8,2.5,6.7,5.1,8.7c2.6,2,6.1,3,10.8,3c5.1,0,8.9-0.9,11.5-2.8
		c1.7-1.3,2.6-3,2.6-5.2c0-1.5-0.5-2.7-1.4-3.7c-1-0.9-3.2-1.8-6.6-2.6c-15.8-3.5-25.9-6.7-30.1-9.6c-5.9-4-8.8-9.6-8.8-16.7
		c0-6.4,2.5-11.8,7.6-16.2c5.1-4.4,12.9-6.6,23.6-6.6c10.1,0,17.7,1.7,22.6,5c4.9,3.3,8.3,8.2,10.2,14.7l-18.5,3.4
		c-0.8-2.9-2.3-5.1-4.5-6.6c-2.2-1.5-5.4-2.3-9.5-2.3c-5.2,0-8.9,0.7-11.1,2.2c-1.5,1-2.2,2.4-2.2,4c0,1.4,0.7,2.6,2,3.6
		c1.8,1.3,7.9,3.1,18.3,5.5c10.4,2.4,17.7,5.3,21.9,8.7c4.1,3.5,6.1,8.4,6.1,14.6c0,6.8-2.8,12.6-8.5,17.5
		c-5.7,4.9-14.1,7.3-25.2,7.3c-10.1,0-18.1-2-24-6.1C1174.1,237.7,1170.2,232.2,1168.4,225.1z"/>
	<path class="st1" d="M1360.2,208.7l20,6.4c-3.1,11.2-8.2,19.5-15.3,24.9c-7.1,5.4-16.2,8.1-27.2,8.1c-13.6,0-24.8-4.6-33.5-13.9
		c-8.8-9.3-13.1-22-13.1-38.1c0-17,4.4-30.3,13.2-39.7c8.8-9.4,20.4-14.1,34.7-14.1c12.5,0,22.7,3.7,30.5,11.1
		c4.7,4.4,8.1,10.7,10.5,18.9l-20.5,4.9c-1.2-5.3-3.7-9.5-7.6-12.6c-3.8-3.1-8.5-4.6-14-4.6c-7.6,0-13.7,2.7-18.5,8.2
		c-4.7,5.4-7.1,14.3-7.1,26.5c0,12.9,2.3,22.2,7,27.7c4.7,5.5,10.7,8.2,18.2,8.2c5.5,0,10.2-1.7,14.2-5.2
		C1355.7,221.6,1358.5,216.2,1360.2,208.7z"/>
	<path class="st1" d="M1440.8,222.7l19.6,3.3c-2.5,7.2-6.5,12.6-11.9,16.4c-5.4,3.7-12.2,5.6-20.4,5.6c-12.9,0-22.4-4.2-28.6-12.6
		c-4.9-6.7-7.3-15.3-7.3-25.6c0-12.3,3.2-21.9,9.6-28.9c6.4-7,14.5-10.4,24.4-10.4c11,0,19.7,3.6,26.1,10.9
		c6.4,7.3,9.4,18.4,9.1,33.5h-49.2c0.1,5.8,1.7,10.3,4.7,13.6c3,3.2,6.8,4.9,11.3,4.9c3.1,0,5.7-0.8,7.8-2.5
		S1439.7,226.4,1440.8,222.7z M1441.9,202.9c-0.1-5.7-1.6-10-4.4-13s-6.2-4.4-10.2-4.4c-4.3,0-7.8,1.6-10.6,4.7
		c-2.8,3.1-4.2,7.4-4.1,12.7H1441.9z"/>
	<path class="st1" d="M1477.4,246.3V143.9h19.6v102.4H1477.4z"/>
	<path class="st1" d="M1517.1,246.3V143.9h19.6v102.4H1517.1z"/>
	<path class="st1" d="M1596.9,246.3V143.9h20.1l41.9,68.4v-68.4h19.2v102.4h-20.7l-41.3-66.8v66.8H1596.9z"/>
	<path class="st1" d="M1742.8,222.7l19.6,3.3c-2.5,7.2-6.5,12.6-11.9,16.4c-5.4,3.7-12.2,5.6-20.4,5.6c-12.9,0-22.4-4.2-28.6-12.6
		c-4.9-6.7-7.3-15.3-7.3-25.6c0-12.3,3.2-21.9,9.6-28.9c6.4-7,14.5-10.4,24.4-10.4c11,0,19.7,3.6,26.1,10.9
		c6.4,7.3,9.4,18.4,9.1,33.5h-49.2c0.1,5.8,1.7,10.3,4.7,13.6c3,3.2,6.8,4.9,11.3,4.9c3.1,0,5.7-0.8,7.8-2.5
		S1741.7,226.4,1742.8,222.7z M1743.9,202.9c-0.1-5.7-1.6-10-4.4-13s-6.2-4.4-10.2-4.4c-4.3,0-7.8,1.6-10.6,4.7
		c-2.8,3.1-4.2,7.4-4.1,12.7H1743.9z"/>
	<path class="st1" d="M1813.4,172.1v15.6H1800v29.9c0,6.1,0.1,9.6,0.4,10.6c0.3,1,0.8,1.8,1.7,2.5c0.9,0.7,2,1,3.3,1
		c1.8,0,4.4-0.6,7.9-1.9l1.7,15.2c-4.6,2-9.7,2.9-15.5,2.9c-3.5,0-6.7-0.6-9.6-1.8c-2.8-1.2-4.9-2.7-6.2-4.6
		c-1.3-1.9-2.2-4.4-2.8-7.6c-0.4-2.3-0.6-6.9-0.6-13.8v-32.3h-9v-15.6h9v-14.7L1800,146v26.2H1813.4z"/>
	<path class="st1" d="M1840.8,246.3l-23.5-74.2h19.1l13.9,48.6l12.8-48.6h18.9l12.4,48.6l14.2-48.6h19.3l-23.8,74.2h-18.9
		l-12.8-47.7l-12.6,47.7H1840.8z"/>
	<path class="st1" d="M1933.7,208.2c0-6.5,1.6-12.8,4.8-18.9c3.2-6.1,7.8-10.8,13.7-14c5.9-3.2,12.5-4.8,19.7-4.8
		c11.2,0,20.4,3.6,27.6,10.9c7.2,7.3,10.8,16.5,10.8,27.6c0,11.2-3.6,20.5-10.9,27.9c-7.2,7.4-16.4,11.1-27.3,11.1
		c-6.8,0-13.3-1.5-19.4-4.6c-6.2-3.1-10.9-7.6-14.1-13.5C1935.3,223.9,1933.7,216.7,1933.7,208.2z M1953.8,209.2
		c0,7.4,1.7,13,5.2,16.9c3.5,3.9,7.8,5.9,12.9,5.9c5.1,0,9.4-2,12.9-5.9c3.5-3.9,5.2-9.6,5.2-17c0-7.3-1.7-12.8-5.2-16.8
		c-3.5-3.9-7.8-5.9-12.9-5.9c-5.1,0-9.4,2-12.9,5.9C1955.5,196.2,1953.8,201.9,1953.8,209.2z"/>
	<path class="st1" d="M2044.4,246.3h-19.6v-74.2h18.2v10.5c3.1-5,5.9-8.3,8.4-9.8c2.5-1.6,5.3-2.4,8.5-2.4c4.5,0,8.8,1.2,12.9,3.7
		l-6.1,17.1c-3.3-2.1-6.4-3.2-9.2-3.2c-2.7,0-5.1,0.8-7,2.3c-1.9,1.5-3.4,4.2-4.5,8.2c-1.1,4-1.6,12.2-1.6,24.9V246.3z"/>
	<path class="st1" d="M2080.5,246.3V143.9h19.6v54.3l23-26.1h24.2l-25.3,27.1l27.2,47.1h-21.2l-18.6-33.3l-9.1,9.6v23.7H2080.5z"/>
</g>
</svg>
