<?xml version="1.0" encoding="UTF-8"?>
<svg width="50px" height="55px" viewBox="0 0 50 55" version="1.1" xmlns="http://www.w3.org/2000/svg" xmlns:xlink="http://www.w3.org/1999/xlink">
    <!-- Generator: Sketch 60 (88103) - https://sketch.com -->
    <title>QQ</title>
    <desc>Created with Sketch.</desc>
    <g id="Page-1" stroke="none" stroke-width="1" fill="none" fill-rule="evenodd">
        <g id="Artboard" transform="translate(-1423.000000, -4380.000000)" fill="#90B4D9" fill-rule="nonzero">
            <g id="Partners" transform="translate(-1.000000, 4292.000000)">
                <g id="Logos" transform="translate(426.000000, 88.000000)">
                    <g id="QQ" transform="translate(998.000000, 0.000000)">
                        <path d="M49.9829732,36.733889 C48.8259902,30.0343596 43.9668007,25.6450302 43.9668007,25.6450302 C44.6608896,19.5619401 42.1155398,18.4832973 42.1155398,18.4832973 C41.5795937,-0.337104338 25.3411785,-0.00755220735 25.0002479,0.00138348944 C24.6588762,-0.00755220735 8.41825486,-0.337104338 7.88476703,18.4834231 C7.88476703,18.4834231 5.33935417,19.562003 6.03356916,25.645156 C6.03356916,25.645156 1.17406447,30.0344855 0.0172076155,36.7340148 C0.0172076155,36.7340148 -0.600803778,48.0540698 5.57054911,38.1203109 C5.57054911,38.1203109 6.95916813,41.8926348 9.5044549,45.2816663 C9.5044549,45.2816663 4.95278982,46.8228274 5.33935423,50.8262844 C5.33935423,50.8262844 5.18429988,55.2919451 15.0580485,54.9848582 C15.0580485,54.9848582 21.9998829,54.4463863 24.0826539,51.5196213 L24.9921801,51.5196213 L25.0083789,51.5196213 L25.917842,51.5196213 C28.0002978,54.4465122 34.9423214,54.9848582 34.9423214,54.9848582 C44.8136118,55.2919451 44.6608266,50.8262844 44.6608266,50.8262844 C45.0450589,46.8228274 40.4957889,45.2816663 40.4957889,45.2816663 C43.0411387,41.8927606 44.4293165,38.1203109 44.4293165,38.1203109 C50.5984003,48.0539439 49.9829732,36.733889 49.9829732,36.733889 L49.9829732,36.733889 Z" id="路径"></path>
                    </g>
                </g>
            </g>
        </g>
    </g>
</svg>